<svg width="14" height="14" viewBox="0 0 14 14" fill="none" xmlns="http://www.w3.org/2000/svg">
    <path fill-rule="evenodd" clip-rule="evenodd"
        d="M0.583336 2.33333C0.583336 2.01117 0.844506 1.75 1.16667 1.75H12.8333C13.1555 1.75 13.4167 2.01117 13.4167 2.33333C13.4167 2.6555 13.1555 2.91667 12.8333 2.91667H12.25V8.75C12.25 9.71652 11.4665 10.5 10.5 10.5H8.08996L8.65206 11.3431C8.83074 11.6111 8.75829 11.9733 8.49024 12.1521C8.2222 12.3307 7.86001 12.2583 7.68128 11.9902L7 10.9683L6.31873 11.9902C6.13999 12.2583 5.77782 12.3307 5.50976 12.1521C5.2417 11.9733 5.16927 11.6111 5.34797 11.3431L5.91004 10.5H3.5C2.53351 10.5 1.75 9.71652 1.75 8.75V2.91667H1.16667C0.844506 2.91667 0.583336 2.6555 0.583336 2.33333ZM7.58334 4.66667C7.58334 4.3445 7.32218 4.08333 7 4.08333C6.67783 4.08333 6.41667 4.3445 6.41667 4.66667V7.58333C6.41667 7.90551 6.67783 8.16667 7 8.16667C7.32218 8.16667 7.58334 7.90551 7.58334 7.58333V4.66667ZM9.91667 5.83333C9.91667 5.51117 9.65551 5.25 9.33334 5.25C9.01116 5.25 8.75 5.51117 8.75 5.83333V7.58333C8.75 7.90551 9.01116 8.16667 9.33334 8.16667C9.65551 8.16667 9.91667 7.90551 9.91667 7.58333V5.83333ZM5.25 7C5.25 6.67782 4.98883 6.41667 4.66667 6.41667C4.34451 6.41667 4.08334 6.67782 4.08334 7V7.58333C4.08334 7.90551 4.34451 8.16667 4.66667 8.16667C4.98883 8.16667 5.25 7.90551 5.25 7.58333V7Z"
        fill="#D9592A" />
</svg>
    