<svg width="14" height="14" viewBox="0 0 14 14" fill="none" xmlns="http://www.w3.org/2000/svg">
    <path
        d="M5.66667 13V4.33333C5.66667 4.15652 5.59643 3.98695 5.4714 3.86193C5.34638 3.7369 5.17681 3.66667 5 3.66667H1.66667C1.48986 3.66667 1.32029 3.7369 1.19526 3.86193C1.07024 3.98695 1 4.15652 1 4.33333V12.3333C1 12.5101 1.07024 12.6797 1.19526 12.8047C1.32029 12.9298 1.48986 13 1.66667 13H9.66667C9.84348 13 10.013 12.9298 10.1381 12.8047C10.2631 12.6797 10.3333 12.5101 10.3333 12.3333V9C10.3333 8.82319 10.2631 8.65362 10.1381 8.5286C10.013 8.40357 9.84348 8.33333 9.66667 8.33333H1M9 1H12.3333C12.7015 1 13 1.29848 13 1.66667V5C13 5.36819 12.7015 5.66667 12.3333 5.66667H9C8.63181 5.66667 8.33333 5.36819 8.33333 5V1.66667C8.33333 1.29848 8.63181 1 9 1Z"
        stroke="#141414" stroke-opacity="0.6" stroke-width="1.33333" stroke-linecap="round"
        stroke-linejoin="round" />
</svg>
    