<svg width="16" height="13" viewBox="0 0 16 13" fill="none" xmlns="http://www.w3.org/2000/svg">
    <path
        d="M8 0.916016C9.30175 0.916073 10.5807 1.2593 11.708 1.91016C12.8353 2.56105 13.772 3.49675 14.4229 4.62402C15.0738 5.75154 15.4161 7.03108 15.416 8.33301C15.416 9.63477 15.0737 10.9137 14.4229 12.041L13.7734 11.666L13.123 11.291C13.6424 10.3916 13.916 9.37159 13.916 8.33301C13.9161 7.29439 13.6433 6.27351 13.124 5.37402C12.6048 4.4747 11.8573 3.72824 10.958 3.20898C10.0587 2.68979 9.03843 2.41607 8 2.41602C6.96147 2.41606 5.94041 2.68971 5.04102 3.20898C4.14194 3.7282 3.39516 4.47493 2.87598 5.37402C2.35673 6.27348 2.08297 7.29443 2.08301 8.33301C2.08306 9.2416 2.29227 10.1363 2.69238 10.9482L2.87598 11.291L2.91113 11.3594C3.067 11.706 2.93765 12.1212 2.60156 12.3154C2.26515 12.5096 1.84042 12.414 1.61816 12.1055L1.57715 12.041L1.45801 11.8281C0.884043 10.7539 0.583062 9.55343 0.583008 8.33301C0.582958 7.03112 0.925276 5.75152 1.57617 4.62402C2.227 3.49678 3.16384 2.56108 4.29102 1.91016C5.41844 1.25922 6.69816 0.916059 8 0.916016ZM14.4229 12.041C14.2157 12.3996 13.7571 12.5224 13.3984 12.3154C13.0399 12.1083 12.916 11.6496 13.123 11.291L14.4229 12.041ZM10.1367 5.13574C10.4296 4.84301 10.9044 4.8429 11.1973 5.13574C11.4899 5.42859 11.4899 5.90344 11.1973 6.19629L8.53027 8.86328C8.23742 9.15596 7.76258 9.15596 7.46973 8.86328C7.17689 8.57044 7.177 8.09564 7.46973 7.80273L10.1367 5.13574Z"
        fill="#141414" fill-opacity="0.6" />
</svg>
    