<svg width="16" height="16" viewBox="0 0 16 16" fill="none" xmlns="http://www.w3.org/2000/svg">
    <g clip-path="url(#clip0_6298_43923)">
        <path
            d="M4.5 9.25006L5.4375 7.43756C5.53942 7.23515 5.69445 7.06425 5.88601 6.94315C6.07756 6.82205 6.29844 6.75531 6.525 6.75006H13.25M13.25 6.75006C13.441 6.74973 13.6295 6.79315 13.801 6.87699C13.9726 6.96083 14.1227 7.08286 14.2397 7.23373C14.3568 7.38459 14.4378 7.56027 14.4764 7.74728C14.515 7.93429 14.5102 8.12767 14.4625 8.31256L13.5 12.0626C13.4304 12.3323 13.2726 12.571 13.0518 12.7409C12.831 12.9107 12.5598 13.0019 12.2813 13.0001H3.25C2.91848 13.0001 2.60054 12.8684 2.36612 12.6339C2.1317 12.3995 2 12.0816 2 11.7501V3.62506C2 3.29354 2.1317 2.9756 2.36612 2.74118C2.60054 2.50676 2.91848 2.37506 3.25 2.37506H5.6875C5.89655 2.37301 6.10278 2.42343 6.28731 2.5217C6.47184 2.61997 6.62877 2.76295 6.74375 2.93756L7.25 3.68756C7.36382 3.86039 7.51877 4.00226 7.70094 4.10044C7.88311 4.19861 8.08681 4.25003 8.29375 4.25006H12C12.3315 4.25006 12.6495 4.38176 12.8839 4.61618C13.1183 4.8506 13.25 5.16854 13.25 5.50006V6.75006Z"
            stroke="#5D5D5D" stroke-width="1.1" stroke-linecap="round" stroke-linejoin="round" />
    </g>
    <defs>
        <clipPath id="clip0_6298_43923">
            <rect width="15" height="15" fill="white" transform="translate(0.75 0.5)" />
        </clipPath>
    </defs>
</svg>
    