<svg width="12" height="16" viewBox="0 0 12 16" fill="none" xmlns="http://www.w3.org/2000/svg">
    <path
        d="M10.6666 6.66732V8.00065C10.6666 9.23833 10.175 10.4253 9.29981 11.3005C8.42464 12.1757 7.23766 12.6673 5.99998 12.6673M5.99998 12.6673C4.7623 12.6673 3.57532 12.1757 2.70015 11.3005C1.82498 10.4253 1.33331 9.23833 1.33331 8.00065V6.66732M5.99998 12.6673V14.6673M5.99998 1.33398C5.46955 1.33398 4.96084 1.5447 4.58577 1.91977C4.21069 2.29484 3.99998 2.80355 3.99998 3.33398V8.00065C3.99998 8.53108 4.21069 9.03979 4.58577 9.41487C4.96084 9.78994 5.46955 10.0007 5.99998 10.0007C6.53041 10.0007 7.03912 9.78994 7.41419 9.41487C7.78927 9.03979 7.99998 8.53108 7.99998 8.00065V3.33398C7.99998 2.80355 7.78927 2.29484 7.41419 1.91977C7.03912 1.5447 6.53041 1.33398 5.99998 1.33398Z"
        stroke="#141414" stroke-opacity="0.6" stroke-width="1.5" stroke-linecap="round"
        stroke-linejoin="round" />
</svg>
    