<svg width="12" height="12" viewBox="0 0 12 12" fill="none" xmlns="http://www.w3.org/2000/svg">
    <path
        d="M6 0.583984C6.41421 0.583984 6.75 0.919771 6.75 1.33398V5.25H10.666L10.7432 5.25391C11.1213 5.29238 11.416 5.61172 11.416 6C11.416 6.38828 11.1213 6.70762 10.7432 6.74609L10.666 6.75H6.75V10.667C6.75 11.0812 6.41421 11.417 6 11.417C5.58579 11.417 5.25 11.0812 5.25 10.667V6.75H1.33301C0.918906 6.74987 0.583008 6.41413 0.583008 6C0.583008 5.58587 0.918906 5.25013 1.33301 5.25H5.25V1.33398C5.25 0.919771 5.58579 0.583984 6 0.583984Z"
        fill="#141414" fill-opacity="0.6" />
</svg>
    