<svg width="15" height="14" viewBox="0 0 15 14" fill="none" xmlns="http://www.w3.org/2000/svg">
    <path
        d="M11.7554 11.375C11.5994 11.6463 11.6685 11.865 11.4069 12.0158C11.1453 12.1669 10.844 12.25 10.5304 12.25H4.4696C4.15635 12.25 3.85535 12.1669 3.59343 12.0161C3.33152 11.8653 3.40064 11.6463 3.2446 11.375L5.48168 8.75H9.51835L11.7554 11.375Z"
        fill="#1E88E5" />
    <path
        d="M8.51004 2.04045C8.823 2.03986 9.1237 1.83161 9.38533 1.9827C9.64695 2.13407 9.8695 2.35311 10.0261 2.62465L13.0565 7.87349C13.2132 8.14474 13.2919 8.4472 13.2922 8.74907C13.2925 9.05153 12.9227 9.35369 12.7655 9.62436L9.52008 8.7479L7.50058 5.24995L8.51004 2.04045Z"
        fill="#FBC02D" />
    <path
        d="M13.2925 8.75C13.2925 9.05333 13.2138 9.35375 13.0563 9.625L11.9858 11.4771C11.8313 11.7046 11.6329 11.8854 11.4054 12.0167L9.51834 8.75H13.2925Z"
        fill="#E53935" />
    <path
        d="M2.23454 9.62454C2.07763 9.35387 1.70779 9.05171 1.70779 8.74954C1.70809 8.44737 1.78654 8.14491 1.94346 7.87337L4.97388 2.62454C5.1305 2.35329 5.35304 2.13396 5.61438 1.98287C5.876 1.8315 6.177 2.03975 6.48996 2.04033L7.49884 5.25129L5.47992 8.74808L2.23454 9.62454Z"
        fill="#4CAF50" />
    <path
        d="M5.48166 8.75L3.59457 12.0167C3.36707 11.8854 3.16874 11.7046 3.01416 11.4771L1.94374 9.625C1.78624 9.35375 1.70749 9.05333 1.70749 8.75H5.48166Z"
        fill="#1565C0" />
    <path
        d="M9.38416 1.98333L7.5 5.25L5.61292 1.98333C5.84042 1.85208 6.09708 1.77042 6.37125 1.75292L8.50916 1.75C8.82416 1.75 9.12458 1.83167 9.38416 1.98333Z"
        fill="#2E7D32" />
</svg>
    