<svg width="15" height="14" viewBox="0 0 15 14" fill="none" xmlns="http://www.w3.org/2000/svg">
    <path
        d="M9.60001 3.09227L7.67501 3.7631L7.26668 2.50894C7.09168 1.98394 7.35418 1.4006 7.90835 1.2256C8.43335 1.0506 9.01668 1.3131 9.19168 1.86727L9.60001 3.09227ZM9.01668 7.75894L10.9417 7.0881L10.2708 5.01727L8.34585 5.6881L9.01668 7.75894ZM10.0083 10.7339C10.1542 11.1423 10.5625 11.4339 10.9708 11.4339C11.0875 11.4339 11.2042 11.4048 11.2917 11.3756C11.8167 11.2006 12.1083 10.6173 11.9333 10.0923L11.5833 9.04227L9.65835 9.7131L10.0083 10.7339Z"
        fill="#FFB300" />
    <path
        d="M5.51667 4.52014L3.59167 5.19097L3.18334 3.96597C3.00834 3.44097 3.27084 2.85764 3.825 2.68264C4.35 2.50764 4.93334 2.77014 5.10834 3.3243L5.51667 4.52014ZM5.925 12.191C6.07084 12.5993 6.47917 12.891 6.8875 12.891C7.00417 12.891 7.12084 12.8618 7.20834 12.8326C7.73334 12.6576 8.025 12.0743 7.85 11.5493L7.5 10.4701L5.575 11.141L5.925 12.191ZM6.15834 6.4743L4.23334 7.14514L4.90417 9.21597L6.82917 8.54514L6.15834 6.4743Z"
        fill="#00BFA5" />
    <path
        d="M10.2417 5.04527L9.60001 3.12027L10.7958 2.71193C11.3208 2.53693 11.9042 2.79943 12.0792 3.3536C12.2542 3.8786 11.9917 4.46193 11.4375 4.63693L10.2417 5.04527ZM8.31668 5.7161L7.67501 3.7911L5.51668 4.54943L6.15834 6.47443L8.31668 5.7161ZM2.36668 5.6286C1.84168 5.8036 1.55001 6.38693 1.72501 6.91193C1.87084 7.34943 2.27918 7.61193 2.68751 7.61193C2.80418 7.61193 2.92084 7.58277 3.00834 7.5536L4.20418 7.14527L3.56251 5.22027L2.36668 5.6286Z"
        fill="#00BCD4" />
    <path
        d="M4.90418 9.18838L5.54585 11.1134L4.17501 11.58C4.05835 11.6092 3.94168 11.6384 3.85418 11.6384C3.41668 11.6384 3.03751 11.3759 2.89168 10.9384C2.71668 10.4134 2.97918 9.83004 3.53335 9.65504L4.90418 9.18838ZM13.2458 7.38004C13.0708 6.85504 12.4875 6.56338 11.9625 6.73838L10.9417 7.08838L11.5833 9.04254L12.6333 8.69254C13.1583 8.48838 13.45 7.90504 13.2458 7.38004ZM6.82918 8.51754L7.47085 10.4425L9.62918 9.68421L8.98751 7.75921L6.82918 8.51754Z"
        fill="#E91E63" />
    <path d="M10.2417 5.04596L9.59999 3.0918L7.67499 3.76263L8.31665 5.7168L10.2417 5.04596Z"
        fill="#388E3C" />
    <path d="M5.51667 4.52148L3.59167 5.19232L4.23334 7.14648L6.15834 6.47565L5.51667 4.52148Z"
        fill="#00897B" />
    <path d="M9.01666 7.75872L9.65833 9.71289L11.5833 9.04206L10.9417 7.08789L9.01666 7.75872Z"
        fill="#BF360C" />
    <path d="M4.90417 9.18841L5.54584 11.1426L7.47084 10.4717L6.82917 8.51758L4.90417 9.18841Z"
        fill="#4E342E" />
</svg>
    