<svg width="11" height="11" viewBox="0 0 11 11" fill="none" xmlns="http://www.w3.org/2000/svg">
    <path fill-rule="evenodd" clip-rule="evenodd"
        d="M5.17914 1.11914H3.08964C2.39724 1.11914 1.83594 1.68044 1.83594 2.37284V8.22345C1.83594 8.91587 2.39724 9.47715 3.08964 9.47715H7.26864C7.96106 9.47715 8.52235 8.91587 8.52235 8.22345V4.46234H6.43284C5.74042 4.46234 5.17914 3.90104 5.17914 3.20864V1.11914ZM3.50754 6.13395C3.50754 5.90314 3.69464 5.71605 3.92544 5.71605H5.17914C5.40995 5.71605 5.59704 5.90314 5.59704 6.13395C5.59704 6.36475 5.40995 6.55185 5.17914 6.55185H3.92544C3.69464 6.55185 3.50754 6.36475 3.50754 6.13395ZM3.92544 7.38765C3.69464 7.38765 3.50754 7.57474 3.50754 7.80555C3.50754 8.03636 3.69464 8.22345 3.92544 8.22345H6.64179C6.8726 8.22345 7.05969 8.03636 7.05969 7.80555C7.05969 7.57474 6.8726 7.38765 6.64179 7.38765H3.92544Z"
        fill="#141414" fill-opacity="0.6" />
    <path
        d="M8.27822 3.62686L6.01562 1.36426V3.20896C6.01562 3.43976 6.20272 3.62686 6.43353 3.62686H8.27822Z"
        fill="#141414" fill-opacity="0.6" />
</svg>
    