<svg width="11" height="11" viewBox="0 0 11 11" fill="none" xmlns="http://www.w3.org/2000/svg">
    <path fill-rule="evenodd" clip-rule="evenodd"
        d="M0.785156 2.1181C0.785156 1.8873 0.972259 1.7002 1.20306 1.7002H9.56107C9.79187 1.7002 9.97897 1.8873 9.97897 2.1181C9.97897 2.34889 9.79187 2.536 9.56107 2.536H9.14317V6.715C9.14317 7.40742 8.58189 7.9687 7.88947 7.9687H6.16291L6.5656 8.57269C6.6936 8.76472 6.6417 9.02419 6.44967 9.15224C6.25765 9.28024 5.99817 9.22834 5.87013 9.03631L5.38206 8.30419L4.894 9.03631C4.76595 9.22834 4.50649 9.28024 4.31445 9.15224C4.12241 9.02419 4.07052 8.76472 4.19855 8.57269L4.60122 7.9687H2.87466C2.18226 7.9687 1.62096 7.40742 1.62096 6.715V2.536H1.20306C0.972259 2.536 0.785156 2.34889 0.785156 2.1181ZM5.79996 3.7897C5.79996 3.5589 5.61287 3.3718 5.38206 3.3718C5.15126 3.3718 4.96416 3.5589 4.96416 3.7897V5.8792C4.96416 6.11001 5.15126 6.2971 5.38206 6.2971C5.61287 6.2971 5.79996 6.11001 5.79996 5.8792V3.7897ZM7.47157 4.6255C7.47157 4.3947 7.28447 4.2076 7.05366 4.2076C6.82286 4.2076 6.63576 4.3947 6.63576 4.6255V5.8792C6.63576 6.11001 6.82286 6.2971 7.05366 6.2971C7.28447 6.2971 7.47157 6.11001 7.47157 5.8792V4.6255ZM4.12836 5.4613C4.12836 5.23049 3.94126 5.0434 3.71046 5.0434C3.47966 5.0434 3.29256 5.23049 3.29256 5.4613V5.8792C3.29256 6.11001 3.47966 6.2971 3.71046 6.2971C3.94126 6.2971 4.12836 6.11001 4.12836 5.8792V5.4613Z"
        fill="#141414" fill-opacity="0.8" />
</svg>
    