<svg width="11" height="11" viewBox="0 0 11 11" fill="none" xmlns="http://www.w3.org/2000/svg">
    <path
        d="M5.23438 1.70117H7.67429C7.8946 1.70116 8.08467 1.70116 8.24117 1.71395C8.40641 1.72745 8.57073 1.75725 8.72886 1.83782C8.96476 1.95801 9.15654 2.14981 9.27673 2.38571C9.3573 2.54383 9.38709 2.70816 9.40059 2.87337C9.41338 3.0299 9.41338 3.21995 9.41338 3.44024V4.20858H5.23438V1.70117Z"
        fill="#141414" fill-opacity="0.6" />
    <path
        d="M4.39803 1.70117H3.6297C3.40942 1.70116 3.21935 1.70116 3.06283 1.71395C2.89761 1.72745 2.73328 1.75725 2.57516 1.83782C2.33926 1.95801 2.14747 2.14981 2.02727 2.38571C1.9467 2.54383 1.9169 2.70816 1.9034 2.87337C1.89061 3.0299 1.89062 3.21994 1.89063 3.44022V4.20858H4.39803V1.70117Z"
        fill="#141414" fill-opacity="0.6" />
    <path
        d="M1.89063 5.04492V7.48483C1.89062 7.70515 1.89061 7.89521 1.9034 8.05172C1.9169 8.21695 1.9467 8.38127 2.02727 8.53941C2.14747 8.77531 2.33926 8.96709 2.57516 9.08727C2.73328 9.16784 2.89761 9.19764 3.06283 9.21114C3.21936 9.22393 3.4094 9.22393 3.62969 9.22393H4.39803V5.04492H1.89063Z"
        fill="#141414" fill-opacity="0.6" />
    <path
        d="M5.23438 9.22393H7.67433C7.8946 9.22393 8.08467 9.22393 8.24117 9.21114C8.40641 9.19764 8.57073 9.16785 8.72886 9.08727C8.96476 8.96709 9.15654 8.77531 9.27673 8.53941C9.3573 8.38127 9.38709 8.21695 9.40059 8.05172C9.41338 7.89521 9.41338 7.70515 9.41338 7.48488V5.04492H5.23438V9.22393Z"
        fill="#141414" fill-opacity="0.6" />
</svg>
    